<svg width="3279" height="1327" viewBox="0 0 3279 1327" fill="none" xmlns="http://www.w3.org/2000/svg">
<g clip-path="url(#clip0_1267_10)">
<path d="M3125.29 1035.53L3279 1316.03H3191.17L3039.9 1035.53H3125.29ZM2831.32 1316.03V691.641H3042.34C3091.12 691.641 3131.19 699.976 3162.5 716.648C3193.81 733.121 3216.98 755.775 3232.04 784.638C3247.07 813.501 3254.61 846.334 3254.61 883.108C3254.61 919.881 3247.1 952.516 3232.04 980.982C3217.01 1009.45 3193.92 1031.79 3162.81 1048.06C3131.7 1064.11 3091.97 1072.16 3043.59 1072.16H2872.81V1003.86H3041.15C3074.5 1003.86 3101.33 998.986 3121.66 989.233C3142.2 979.479 3157.03 965.643 3166.19 947.781C3175.55 929.691 3180.23 908.143 3180.23 883.136C3180.23 858.129 3175.55 836.297 3166.19 817.584C3156.83 798.9 3141.88 784.468 3121.35 774.289C3100.82 763.912 3073.68 758.752 3039.93 758.752H2906.98V1316.08H2831.35L2831.32 1316.03ZM2330.98 1316.03V691.641H2707.9V758.724H2406.62V969.697H2688.39V1036.78H2406.62V1248.97H2712.78V1316.06H2330.98V1316.03ZM2132.61 886.765C2125.89 866.238 2117.07 847.837 2106.07 831.59C2095.29 815.117 2082.39 801.111 2067.33 789.515C2052.49 777.918 2035.62 769.072 2016.71 762.977C1997.79 756.881 1977.06 753.819 1954.49 753.819C1917.48 753.819 1883.84 763.374 1853.55 782.483C1823.27 801.593 1799.16 829.748 1781.3 866.947C1763.4 904.146 1754.47 949.765 1754.47 1003.83C1754.47 1057.9 1763.51 1103.52 1781.61 1140.72C1799.7 1177.92 1824.2 1206.08 1855.11 1225.19C1886.03 1244.3 1920.79 1253.85 1959.42 1253.85C1995.21 1253.85 2026.72 1246.22 2053.94 1230.97C2081.39 1215.52 2102.75 1193.77 2117.98 1165.73C2133.43 1137.49 2141.15 1104.23 2141.15 1066.04L2164.31 1070.92H1976.46V1003.83H2214.31V1070.92C2214.31 1122.35 2203.34 1167.06 2181.39 1205.05C2159.64 1243.08 2129.55 1272.53 2091.12 1293.46C2052.89 1314.18 2008.99 1324.56 1959.39 1324.56C1904.09 1324.56 1855.51 1311.55 1813.63 1285.55C1771.94 1259.52 1739.41 1222.55 1716.04 1174.58C1692.87 1126.6 1681.27 1069.7 1681.27 1003.83C1681.27 954.444 1687.88 910.043 1701.1 870.604C1714.51 830.967 1733.43 797.227 1757.81 769.384C1782.2 741.542 1811.07 720.192 1844.42 705.363C1877.77 690.535 1914.47 683.106 1954.51 683.106C1987.44 683.106 2018.15 688.097 2046.6 698.048C2075.27 707.802 2100.76 721.723 2123.14 739.812C2145.71 757.703 2164.51 779.138 2179.54 804.145C2194.57 828.954 2204.95 856.484 2210.65 886.765H2132.58H2132.61ZM1463.25 1035.53L1616.95 1316.03H1529.13L1377.86 1035.53H1463.25ZM1169.28 1316.03V691.641H1380.3C1429.1 691.641 1469.15 699.976 1500.46 716.648C1531.76 733.121 1554.93 755.775 1569.99 784.638C1585.05 813.501 1592.57 846.334 1592.57 883.108C1592.57 919.881 1585.05 952.516 1569.99 980.982C1554.93 1009.45 1531.88 1031.79 1500.77 1048.06C1469.66 1064.11 1429.93 1072.16 1381.55 1072.16H1210.77V1003.86H1379.11C1412.46 1003.86 1439.28 998.986 1459.62 989.233C1480.15 979.479 1494.98 965.643 1504.14 947.781C1513.5 929.691 1518.18 908.143 1518.18 883.136C1518.18 858.129 1513.5 836.297 1504.14 817.584C1494.78 798.9 1479.84 784.468 1459.31 774.289C1438.77 763.912 1411.63 758.752 1377.89 758.752H1244.94V1316.08H1169.31L1169.28 1316.03ZM955.505 691.641H1031.14V1105.05C1031.14 1147.73 1021.07 1185.86 1000.94 1219.37C981 1252.72 952.868 1279.03 916.455 1298.34C880.07 1317.45 837.361 1327 788.385 1327C739.409 1327 696.7 1317.45 660.315 1298.34C623.93 1279.03 595.656 1252.72 575.549 1219.37C555.613 1185.83 545.659 1147.73 545.659 1105.05V691.641H621.293V1098.96C621.293 1129.44 628.014 1156.57 641.428 1180.36C654.841 1203.95 673.956 1222.55 698.77 1236.16C723.783 1249.57 753.673 1256.29 788.413 1256.29C823.153 1256.29 853.072 1249.57 878.056 1236.16C903.069 1222.55 922.183 1203.95 935.399 1180.36C948.813 1156.57 955.534 1129.44 955.534 1098.96V691.641H955.505ZM75.6339 966.04H215.898C238.671 966.04 259.203 961.56 277.494 952.629C295.985 943.698 310.646 931.081 321.394 914.835C332.369 898.56 337.871 879.479 337.871 857.505C337.871 830.059 328.314 806.782 309.2 787.7C290.086 768.392 259.798 758.724 218.337 758.724H75.6339V966.04ZM75.6339 1248.97H225.682C275.084 1248.97 310.164 1239.42 330.895 1220.31C351.824 1201 362.317 1177.64 362.317 1150.19C362.317 1129.04 356.928 1109.53 346.152 1091.64C335.375 1073.55 320.033 1059.12 300.097 1048.35C280.16 1037.38 256.594 1031.88 229.341 1031.88H75.6339V1248.94V1248.97ZM0 1316.03V691.641H218.337C261.84 691.641 297.715 699.154 325.989 714.21C354.234 729.038 375.277 749.055 389.116 774.261C402.927 799.268 409.847 826.997 409.847 857.505C409.847 884.327 405.082 906.499 395.525 923.964C386.167 941.458 373.774 955.266 358.318 965.416C343.061 975.566 326.499 983.108 308.604 987.985V994.081C327.719 995.3 346.918 1002.02 366.23 1014.21C385.543 1026.4 401.708 1043.9 414.724 1066.66C427.741 1089.43 434.236 1117.27 434.236 1150.19C434.236 1183.11 427.117 1209.65 412.881 1234.66C398.645 1259.66 376.184 1279.48 345.5 1294.11C314.815 1308.74 274.857 1316.06 225.654 1316.06H0V1316.03Z" fill="#010101"/>
<path d="M1046.03 816.989C954.314 816.989 888.152 737.629 865.153 662.636L865.068 662.295C856.106 630.285 867.138 598.813 877.971 578.059C883.445 567.427 890.336 556.114 899.638 542.561C905.395 534.169 911.52 525.719 917.447 517.554C951.365 470.8 983.382 426.626 966.622 373.209C962.17 359.288 952.953 345.707 943.169 331.304C923.204 301.93 900.602 268.644 920.056 227.05C924.424 216.673 930.152 206.608 937.157 197.11C944.02 187.81 952.017 179.105 960.95 171.223C974.704 159.429 989.706 149.732 1004.23 140.347C1033.95 121.124 1062.02 102.978 1072.03 71.2794C1078.87 49.7596 1093.16 33.0314 1112.27 24.1569C1132.55 14.7438 1157.05 14.6871 1179.49 23.9868C1226.56 42.4445 1255.91 90.9847 1249.28 139.496C1247.01 157.727 1241.08 176.015 1235.35 193.679C1223.22 231.133 1212.72 263.512 1234.19 292.574C1238.05 296.685 1242.22 298.528 1247.66 298.528C1253.11 298.528 1258.01 296.401 1262.32 291.865C1267.8 286.109 1272.31 277.547 1275.71 266.404C1278.8 256.764 1281.1 246.784 1282.74 235.613C1284.13 226.2 1285.07 216.106 1285.69 203.886C1285.72 199.491 1285.69 195.04 1285.69 190.532C1285.66 157.047 1285.63 119.054 1299.62 86.7317C1303.93 76.7515 1309.43 67.6219 1316.01 59.6264L1316.29 59.2862C1347.94 23.1362 1393.06 2.72214 1446.69 0.255443C1458.46 -0.283262 1470.59 0.0569727 1482.79 1.27615C1534.37 4.90532 1594.49 33.4567 1615.79 81.6849C1620.84 73.6327 1626.82 66.7146 1633.8 60.8172C1684.62 18.458 1770.8 49.3626 1812.21 64.1912L1812.49 64.3046C1828.77 70.5423 1840.71 82.0535 1848.2 98.7534C1857.47 72.2718 1876.16 49.873 1906.33 42.161C1916.8 39.3541 1928.03 38.5885 1940.48 39.8644C1950.4 40.8851 1960.87 43.1534 1973.43 46.981C1983.27 49.9864 1993.2 53.5872 2002.78 57.103L2004.65 57.7834C2009.73 59.3712 2014.92 61.1574 2019.91 62.887C2041.07 70.202 2061.06 77.1201 2077.82 70.3154C2087.32 66.261 2097.78 61.1858 2106.72 56.7911C2110.06 55.1466 2113.44 53.4738 2116.87 51.801C2123.85 48.3419 2130.94 44.8262 2138.14 41.3955C2178.52 17.1821 2231.07 8.10919 2282.46 16.4449C2335.63 25.0926 2381.4 50.6102 2411.32 88.2628C2433.22 115.822 2448.1 151.093 2454.34 190.22C2460.04 226.029 2456.64 261.641 2443.62 302.299C2437.73 320.7 2430.49 338.449 2424.2 353.391C2410.9 384.919 2402.13 418.319 2397.46 455.489C2396.24 465.073 2395.13 474.968 2394.05 484.494C2386.88 548.345 2379.48 614.351 2336.26 668.788C2328.46 678.598 2320.09 688.522 2310.68 699.154C2292.87 719.2 2274.23 738.366 2256.77 756.058C2237.4 775.423 2213.69 788.239 2188.11 793.201C2175.71 795.611 2162.36 796.149 2148.41 794.845C2134.96 793.541 2121.52 790.62 2108.33 786.169C2100.48 783.731 2092.71 787.558 2080.68 793.966C2076.4 796.263 2071.98 798.616 2067.27 800.657C2058.34 805.081 2047.65 808.908 2035.48 812.055C2022.92 815.288 2007.35 816.932 1989.23 816.932C1974.39 816.932 1959.05 814.238 1943.6 808.965C1928.05 803.663 1913.51 795.582 1900.43 784.95C1887.76 774.658 1877.12 761.36 1868.87 745.426C1863.14 754.556 1856.31 763.147 1848.39 771.17C1812.04 809.107 1756.85 832.753 1715.79 799.75L1715.05 799.098C1702.83 787.814 1692.39 775.196 1682.29 763.005C1677.76 757.533 1673.47 752.344 1669.05 747.297C1656.52 732.979 1642.25 718.661 1622.91 711.006C1584.68 695.553 1546.99 722.857 1510.55 749.254C1505.7 752.769 1500.94 756.2 1496.29 759.461L1487.35 765.953C1481.23 770.405 1475.1 774.856 1468.95 779.251C1423.12 812.339 1370.31 814.891 1334.36 785.715C1326.64 780.187 1319.52 773.779 1313.2 766.662C1306.82 759.461 1301.09 751.352 1296.18 742.534C1286.31 724.87 1280.5 702.868 1278.88 677.181V676.784C1278.06 653.393 1282.91 628.981 1293.26 604.285C1302.82 581.461 1312.83 559.233 1322.93 538.195C1332.6 518.121 1339.8 500.684 1344.37 486.281C1348 474.798 1344.42 472.87 1341.79 471.452C1336.51 468.617 1334.67 469.723 1332.46 471.707C1325.93 477.576 1319.44 485.26 1313.09 494.616C1305.8 505.362 1297.77 515.739 1289.26 525.408C1278.49 537.628 1264.08 544.064 1247.58 544.064C1231.07 544.064 1216.61 537.599 1205.89 525.408C1197.52 515.909 1189.67 505.759 1182.46 495.212C1179.4 491.526 1176.85 487.528 1174.35 483.644C1170.16 477.151 1165.85 470.431 1161.36 469.155L1160.77 468.985C1158.84 468.333 1156.57 469.07 1155.83 469.637C1150.33 488.35 1159.92 509.105 1169.22 529.179C1170.64 532.241 1172.03 535.274 1173.39 538.28C1180.51 552.513 1187.43 567.143 1194.01 581.773C1200.93 597.14 1206.74 612.848 1211.3 628.499C1216.15 645.085 1218.22 661.36 1217.43 676.869C1216.61 702.698 1210.94 724.87 1200.56 742.732C1190.32 760.311 1177.22 774.856 1161.56 785.971C1146.11 796.943 1128.47 804.939 1109.1 809.787C1099.68 812.14 1089.96 813.927 1080.17 815.089C1070.42 816.252 1060.49 816.819 1050.45 816.819C1048.98 816.847 1047.47 816.875 1046 816.875L1046.03 816.989ZM892.321 654.498C913.363 722.829 974.194 790.876 1049.88 788.579H1050.34C1059.19 788.579 1068.18 788.069 1076.85 787.048C1085.45 786.027 1094.01 784.44 1102.26 782.398C1118.17 778.429 1132.61 771.879 1145.17 762.976C1157.48 754.244 1167.86 742.676 1176.05 728.613C1184.05 714.833 1188.45 697.113 1189.1 675.961V675.65C1189.75 663.288 1188.08 650.16 1184.11 636.579C1179.88 622.176 1174.52 607.688 1168.14 593.511C1161.68 579.165 1154.87 564.79 1147.87 550.783L1147.61 550.216C1146.28 547.239 1144.89 544.234 1143.5 541.2C1132.32 517.044 1119.68 489.655 1129.15 460.196L1129.38 459.544C1134.91 444.8 1153.23 436.862 1169.5 442.107C1184.05 446.388 1191.94 458.608 1198.26 468.418C1200.5 471.877 1202.6 475.166 1204.7 477.633L1205.6 478.852C1212.24 488.634 1219.53 498.047 1227.24 506.836C1232.66 512.989 1239.15 515.881 1247.66 515.881C1256.17 515.881 1262.63 513.017 1268.08 506.836C1275.79 498.075 1283.08 488.662 1289.72 478.88C1297.35 467.624 1305.37 458.183 1313.6 450.811C1325.54 440.065 1340.34 438.591 1355.31 446.643C1363.4 450.981 1381.26 464.364 1371.53 495.013C1366.57 510.664 1358.86 529.377 1348.62 550.642C1338.72 571.226 1328.94 593.001 1319.55 615.4C1310.82 636.239 1306.71 656.54 1307.33 675.763C1308.69 697.113 1313.31 714.975 1321.08 728.868C1325 735.899 1329.53 742.336 1334.55 748.006C1339.54 753.648 1345.16 758.695 1351.29 763.033L1352.08 763.628C1383.27 789.231 1424.42 776.671 1452.53 756.37C1458.68 751.975 1464.75 747.552 1470.82 743.158L1479.98 736.495C1484.69 733.178 1489.34 729.832 1494.07 726.401C1532.76 698.389 1580.91 663.515 1633.57 684.807C1658.47 694.646 1676.34 712.537 1690.52 728.755C1695.23 734.113 1699.82 739.67 1704.27 745.057C1713.66 756.399 1723.36 768.137 1734.02 778.06C1765.02 802.415 1809.12 771.426 1828.17 751.55C1841.87 737.629 1851.54 721.836 1857.04 704.513L1871.87 657.759L1863.82 600.656C1861.78 586.225 1858.94 571.453 1855.11 555.518L1855 555.036C1853.33 546.786 1851.23 538.251 1848.62 528.952C1844.25 513.471 1838.92 497.877 1833.79 482.793C1824.17 454.554 1814.22 425.322 1809.26 393.964C1802.28 349.506 1809.94 307.771 1817.37 267.425C1822.08 241.765 1826.53 217.524 1827.55 192.516L1827.61 191.666C1828.54 182.196 1829.08 172.556 1829.17 163.029V162.434C1831.21 122.003 1822.5 98.6116 1802.59 90.928C1747.09 71.0526 1685.84 54.5512 1652.15 82.6206C1642.59 90.7011 1635.5 102.184 1630.57 117.665C1628.33 124.725 1626.54 132.465 1625.09 141.368L1624.87 142.474C1617.01 174.853 1620.73 208.734 1625.58 243.495L1626.88 252.653C1628.13 261.499 1629.43 270.629 1630.54 279.758C1637.46 337.031 1640.92 398.046 1619.62 456.198C1615 468.163 1609.41 479.391 1602.89 489.825L1586.07 516.817L1577.25 486.252C1552.32 400.003 1551.3 308.48 1574.08 206.466C1576.68 193.906 1580.54 181.912 1584.28 170.288C1589.22 155.005 1593.87 140.574 1595.46 125.604C1596.08 116.587 1595.06 107.855 1592.42 99.6323C1579.09 58.2371 1524.96 32.6628 1480.75 29.629H1480.29C1469.4 28.4949 1458.57 28.1547 1448.13 28.6367C1416.28 30.111 1371.31 39.8361 1337.9 77.8856C1333.08 83.783 1329 90.5877 1325.76 98.0729C1314.11 125.008 1314.14 158.351 1314.16 190.617C1314.16 195.295 1314.16 199.945 1314.16 204.51V205.133C1313.48 218.431 1312.43 229.489 1310.9 239.894C1309.03 252.596 1306.39 264.079 1302.88 275.023C1298.23 290.192 1291.53 302.526 1283 311.513C1273.38 321.664 1261.19 327.022 1247.77 327.022C1234.36 327.022 1222.08 321.55 1212.81 311.202L1212.04 310.266C1181.19 269.296 1195.71 224.555 1208.5 185.088C1214.06 167.906 1219.33 151.688 1221.29 135.981C1226.19 100.086 1204.24 64.2196 1169.13 50.4968L1168.85 50.3833C1153.68 44.0607 1137.46 43.9472 1124.33 50.0148C1112.33 55.5719 1103.63 65.9491 1099.17 79.9838C1086.13 121.407 1052.38 143.239 1019.74 164.334C1006.01 173.208 991.833 182.366 979.667 192.8C972.379 199.208 965.771 206.381 960.128 214.065C954.428 221.833 949.748 229.999 946.232 238.42L945.977 239.015C933.187 266.092 948.756 289.001 966.764 315.54C977.257 330.964 988.09 346.926 993.79 364.817C1014.86 431.9 975.385 486.337 940.532 534.339C934.718 542.363 928.706 550.642 923.147 558.751C914.526 571.283 908.23 581.603 903.268 591.243C894.788 607.489 886.082 631.589 892.463 654.612L892.321 654.498ZM1893.6 731.391C1900.12 744.292 1908.46 754.924 1918.38 762.948C1928.88 771.454 1940.48 777.918 1952.84 782.171C1965.35 786.453 1977.6 788.607 1989.28 788.607C2005.02 788.607 2018.18 787.275 2028.45 784.61C2038.85 781.916 2047.79 778.741 2055.02 775.111L2055.81 774.743C2059.53 773.155 2063.36 771.114 2067.41 768.959C2080.77 761.842 2097.42 752.968 2117.07 759.177L2117.35 759.262C2128.53 763.062 2139.93 765.528 2151.21 766.634C2162.41 767.683 2173.05 767.258 2182.8 765.386C2203.08 761.445 2221.23 751.579 2236.74 736.098C2253.87 718.746 2272.19 699.92 2289.55 680.356C2298.62 670.121 2306.68 660.594 2314.14 651.209C2352.28 603.151 2358.94 543.979 2365.98 481.376C2367.05 471.736 2368.19 461.755 2369.41 451.974C2374.43 412.195 2383.81 376.356 2398.16 342.418C2404.23 328.072 2411.15 311.06 2416.71 293.708C2428.48 256.934 2431.49 226.398 2426.44 194.728C2420.97 160.393 2408.09 129.686 2389.23 105.927C2336.85 40.0062 2226.17 21.35 2152.32 66.0341L2151.1 66.6863C2143.81 70.1737 2136.61 73.7461 2129.55 77.2335C2126.11 78.9347 2122.71 80.6075 2119.34 82.2803C2110.06 86.8452 2099.17 92.0904 2088.88 96.5135C2062.02 107.458 2034.8 98.0445 2010.78 89.7088C2005.67 87.9509 2000.85 86.2781 1996.12 84.8037L1993.22 83.783C1983.55 80.2673 1974.42 76.9216 1965.29 74.1431C1954.51 70.8541 1945.75 68.9545 1937.7 68.1039C1928.73 67.1966 1920.85 67.6786 1913.62 69.6066C1878.71 78.5094 1866.63 119.111 1870.12 153.077L1870.17 154.098C1870.46 163.483 1871.19 172.981 1871.9 182.168L1872.02 183.67C1873.89 198.726 1876.87 212.165 1881.03 224.725C1887.67 244.317 1896.94 263.625 1906.76 284.068C1932.62 337.938 1959.39 393.68 1936.05 456.652C1934.32 461.273 1932.59 465.838 1930.86 470.403C1921.65 494.786 1912.12 519.992 1904.74 545.113C1901.68 555.547 1899.21 565.243 1897.14 574.713C1895.33 583.503 1893.51 592.405 1891.75 601.365L1879.99 660.849L1884.64 707.32C1885.03 711.289 1887.13 715.996 1889.34 720.929C1890.82 724.246 1892.35 727.677 1893.63 731.391H1893.6ZM1852.53 228.836C1850.49 243.608 1847.83 258.182 1845.19 272.443C1837.87 312.222 1830.98 349.79 1837.22 389.456C1841.79 418.404 1850.92 445.169 1860.59 473.55C1865.83 488.974 1871.28 504.937 1875.85 521.155C1876.92 525.011 1877.94 528.782 1878.88 532.439C1886.31 507.914 1895.44 483.757 1904.26 460.366C1905.99 455.83 1907.69 451.293 1909.39 446.757C1928.54 395.098 1905.51 347.125 1881.12 296.345C1871.36 276.044 1861.3 255.034 1854.09 233.741C1853.55 232.125 1853.04 230.481 1852.53 228.836ZM1596.28 239.015C1583.01 311.003 1582.64 377.292 1595.09 440.094C1611.88 389.456 1608.53 334.763 1602.29 283.075C1601.21 274.258 1599.94 265.27 1598.69 256.537L1597.39 247.322C1596.99 244.544 1596.62 241.765 1596.25 239.015H1596.28ZM2164.54 362.435C2143.07 362.435 2128.04 350.981 2122.03 329.914C2119.65 321.607 2117.66 311.939 2116.1 301.193L2115.99 300.116C2115.68 295.494 2115.25 290.702 2114.83 285.826C2112.59 260.053 2110.06 230.849 2119.71 204.963C2124.07 193.254 2130.68 183.075 2139.36 174.682L2139.76 174.314C2151.16 164.107 2166.92 158.124 2183.17 157.784C2201.29 155.969 2218.11 163.029 2230.56 177.659C2245.11 194.756 2250.87 219.338 2245.34 240.546C2243.86 250.867 2241.25 261.244 2238.93 270.175L2237.88 274.144C2235.75 282.253 2233.74 289.909 2232.4 297.11L2232.26 297.734C2229.43 310.011 2225.37 320.388 2219.87 329.461C2213.94 339.271 2206.54 347.011 2197.86 352.512C2189.1 358.069 2179.03 361.358 2167.89 362.293H2167.35C2166.38 362.378 2165.45 362.378 2164.51 362.378L2164.54 362.435ZM2144.24 297.621C2145.6 306.92 2147.33 315.143 2149.31 322.146C2151.92 331.275 2156.2 334.451 2165.85 334.054C2172.34 333.487 2177.84 331.701 2182.72 328.61C2187.74 325.435 2191.96 320.927 2195.65 314.802C2199.51 308.395 2202.46 300.824 2204.61 291.638C2206.12 283.501 2208.36 275.08 2210.48 266.914L2211.5 262.973C2213.8 254.156 2216.16 244.799 2217.4 235.726L2217.8 233.855C2221.26 221.465 2217.71 206.239 2209.01 196.004C2204.53 190.758 2196.87 184.748 2185.64 185.995L2184.22 186.08C2174.61 186.194 2165.42 189.511 2158.93 195.238C2153.34 200.71 2149.23 207.118 2146.33 214.858C2138.9 234.762 2141.06 259.458 2143.13 283.359C2143.56 288.207 2143.95 292.971 2144.29 297.592L2144.24 297.621Z" fill="#ED6F2C"/>
</g>
<defs>
<clipPath id="clip0_1267_10">
<rect width="3279" height="1327" fill="white"/>
</clipPath>
</defs>
</svg>
